# xmcd CD database file
#
# Track frame offsets:
#	150
#	14765
#	40985
#	57897
#	80927
#	103252
#	111217
#	129370
#	145082
#	169842
#	194070
#	218987
#	242737
#
# Disc length: 3637 seconds
#
# Revision: 0
# Processed by: cddbd v1.5.1PL2 Copyright (c) Steve Scherf et al.
# Submitted via: CDex 1.51
#
DISCID=c70e330d
DTITLE=Calarts - Jazz
DYEAR=1900
DGENRE=Jazz
TTITLE0=Registration
TTITLE1=Another Fine Mess
TTITLE2=Chorale
TTITLE3=Flor Salvaje
TTITLE4=La otra Vez
TTITLE5=Evidence\Around Seven
TTITLE6=Fusako
TTITLE7=Left of center
TTITLE8=The Fast Half Hour
TTITLE9=Gavea
TTITLE10=Punchy
TTITLE11=Into this River
TTITLE12=Kriva Reka
EXTD=
EXTT0=
EXTT1=
EXTT2=
EXTT3=
EXTT4=
EXTT5=
EXTT6=
EXTT7=
EXTT8=
EXTT9=
EXTT10=
EXTT11=
EXTT12=
PLAYORDER=
